# xmcd
#
# Track frame offsets:
#	150
#	10885
#	27784
#	39968
#	50821
#	65474
#	87387
#	102449
#	124402
#	135931
#	156059
#
# Disc length: 2313 seconds
#
# Revision: 0
# Processed by: cddbd v1.5.1PL0 Copyright (c) Steve Scherf et al.
# Submitted via: audiograbber 1.83.01
#
DISCID=8b09070b
DTITLE=Rebels - Still cruisin
DYEAR=1996
DGENRE=Country
TTITLE0=Sold
TTITLE1=Livin' On Love
TTITLE2=I Love A Rainy Night
TTITLE3=Every Second, Every Minute
TTITLE4=Mercury Blues
TTITLE5=The Dance
TTITLE6=Adalaida
TTITLE7=Margaritaville
TTITLE8=Great Balls Of Fire
TTITLE9=Song For The Live
TTITLE10=God Blessed Texas
EXTD=
EXTT0=
EXTT1=
EXTT2=
EXTT3=
EXTT4=
EXTT5=
EXTT6=
EXTT7=
EXTT8=
EXTT9=
EXTT10=
PLAYORDER=
